<svg xmlns="http://www.w3.org/2000/svg" xmlns:xlink="http://www.w3.org/1999/xlink" width="64" height="64" viewBox="0 0 64 64">
  <defs>
    <clipPath id="clip-Custom_Size_1">
      <rect width="64" height="64"/>
    </clipPath>
  </defs>
  <g id="Custom_Size_1" data-name="Custom Size – 1" clip-path="url(#clip-Custom_Size_1)">
    <g id="Ellipse_1" data-name="Ellipse 1" transform="translate(1 1)" fill="none" stroke="#707070" stroke-width="9">
      <circle cx="31" cy="31" r="31" stroke="none"/>
      <circle cx="31" cy="31" r="26.5" fill="none"/>
    </g>
    <path id="Path_1" data-name="Path 1" d="M3.04,0V-4.56h7.68V-17.48H4.04V-22H15.52V-4.56h6.8V0Zm9.68-25.68a3.49,3.49,0,0,1-2.4-.78,2.665,2.665,0,0,1-.88-2.1,2.665,2.665,0,0,1,.88-2.1,3.489,3.489,0,0,1,2.4-.78,3.489,3.489,0,0,1,2.4.78,2.665,2.665,0,0,1,.88,2.1,2.665,2.665,0,0,1-.88,2.1A3.49,3.49,0,0,1,12.72-25.68Z" transform="translate(20 47)" fill="#707070"/>
  </g>
</svg>
