<svg xmlns="http://www.w3.org/2000/svg" width="209.71" height="84.084" viewBox="0 0 209.71 84.084">
    <g id="NZL_1c_blau_RGB" transform="translate(-23.2 -36.8)">
        <g id="Group_1" data-name="Group 1" transform="translate(54.502 36.8)">
            <path id="Path_1" data-name="Path 1" d="M90.625,47.7c4.937,0,7.773,3.309,7.773,8.508a4.805,4.805,0,0,1-.053.893H87.107a3.874,3.874,0,0,0,4.149,3.676,4.7,4.7,0,0,0,3.886-1.943l2.784,2.1A7.538,7.538,0,0,1,91.2,64.454,7.98,7.98,0,0,1,82.8,56.1C82.8,51.324,86.109,47.7,90.625,47.7Zm3.519,6.722a3.306,3.306,0,0,0-3.414-3.256,3.423,3.423,0,0,0-3.466,3.256Z" transform="translate(-82.8 -41.975)" fill="#5077b3"/>
            <path id="Path_2" data-name="Path 2" d="M119.181,42.1h4.149v3.361h2.994v3.414H123.33v6.2c0,2.363.735,2.889,2.363,2.889a4.535,4.535,0,0,0,.788-.053V61.48a8.132,8.132,0,0,1-1.786.158c-3.834,0-5.515-2.153-5.515-6.46v-6.3H117.5V45.461h1.733V42.1Z" transform="translate(-99.276 -39.316)" fill="#5077b3"/>
            <path id="Path_3" data-name="Path 3" d="M147.052,60.947h7.3v3.519H141.8V61.892l7.2-9.874H142.01V48.5h12.237v2.626Z" transform="translate(-110.814 -42.355)" fill="#5077b3"/>
            <path id="Path_4" data-name="Path 4" d="M183.147,54.225l-2.941,10.241h-4.727L170.7,48.5h4.569l2.836,11.344L181.151,48.5h3.991l3.046,11.344L191.025,48.5h4.569l-4.779,15.966h-4.727Z" transform="translate(-124.535 -42.355)" fill="#5077b3"/>
            <path id="Path_5" data-name="Path 5" d="M230.825,47.7c4.937,0,7.773,3.309,7.773,8.508a4.807,4.807,0,0,1-.053.893H227.306a3.874,3.874,0,0,0,4.149,3.676,4.7,4.7,0,0,0,3.886-1.943l2.784,2.1a7.538,7.538,0,0,1-6.723,3.519A7.98,7.98,0,0,1,223,56.1C222.947,51.324,226.256,47.7,230.825,47.7Zm3.466,6.722a3.306,3.306,0,0,0-3.414-3.256,3.423,3.423,0,0,0-3.466,3.256Z" transform="translate(-149.367 -41.975)" fill="#5077b3"/>
            <path id="Path_6" data-name="Path 6" d="M268.608,52.007c-3.151,0-4.307,1.943-4.307,5.147v6.985h-4.2V48.12h4.149v2.311a4.682,4.682,0,0,1,4.412-2.731v4.307Z" transform="translate(-166.983 -41.975)" fill="#5077b3"/>
            <path id="Path_7" data-name="Path 7" d="M283.9,36.8h4.2V49.615l5.147-6.722h4.727l-5.62,7.3,6.04,8.718h-4.937L288.1,50.665v8.246h-4.2Z" transform="translate(-178.283 -36.8)" fill="#5077b3"/>
        </g>
        <g id="Group_2" data-name="Group 2" transform="translate(32.338 67.576)">
            <path id="Path_8" data-name="Path 8" d="M45.8,119.5h7.3v3.519H40.6v-2.573l7.2-9.874H40.81V107H53.047v2.626Z" transform="translate(-40.6 -100.908)" fill="#5077b3"/>
            <path id="Path_9" data-name="Path 9" d="M72,116.243V107h4.2v9.716A2.681,2.681,0,0,0,78.88,119.6a2.773,2.773,0,0,0,2.836-2.994V107h4.2v15.966H81.769v-1.891a5.044,5.044,0,0,1-4.254,2.258C73,123.439,72,119.657,72,116.243Z" transform="translate(-55.509 -100.908)" fill="#5077b3"/>
            <path id="Path_10" data-name="Path 10" d="M107.5,95.4h4.2v12.815l5.147-6.722h4.727l-5.62,7.248,6.04,8.718h-4.937l-5.357-8.246v8.246h-4.2V95.4Z" transform="translate(-72.364 -95.4)" fill="#5077b3"/>
            <path id="Path_11" data-name="Path 11" d="M141.1,116.243V107h4.2v9.716a2.681,2.681,0,0,0,2.678,2.889,2.773,2.773,0,0,0,2.836-2.994V107h4.2v15.966h-4.149v-1.891a5.044,5.044,0,0,1-4.254,2.258C142.1,123.439,141.1,119.657,141.1,116.243Z" transform="translate(-88.318 -100.908)" fill="#5077b3"/>
            <path id="Path_12" data-name="Path 12" d="M190.618,113.443v9.243h-4.2V112.97a2.681,2.681,0,0,0-2.678-2.889,2.773,2.773,0,0,0-2.836,2.994v9.611h-4.2V106.668h4.149v1.891A5.044,5.044,0,0,1,185.1,106.3C189.62,106.3,190.618,110.081,190.618,113.443Z" transform="translate(-105.221 -100.575)" fill="#5077b3"/>
            <path id="Path_13" data-name="Path 13" d="M211.933,104.959H210.2v-3.466h1.733v-.578c0-4.149,2.784-5.515,5.882-5.515.63,0,1.05.053,1.366.053v3.571c-.105,0-.473-.053-.84-.053-1.471,0-2.206.683-2.206,2.1v.473h2.784v3.414h-2.784v12.552h-4.2Z" transform="translate(-121.127 -95.4)" fill="#5077b3"/>
            <path id="Path_14" data-name="Path 14" d="M234.881,100.6h4.149v3.361h2.994v3.414H239.03v6.2c0,2.363.735,2.889,2.363,2.889a4.535,4.535,0,0,0,.788-.053v3.624a8.132,8.132,0,0,1-1.786.158c-3.834,0-5.515-2.153-5.515-6.46v-6.3H233.2v-3.466h1.733V100.6Z" transform="translate(-132.048 -97.869)" fill="#5077b3"/>
            <path id="Path_15" data-name="Path 15" d="M255.9,120.113l2.468-2.206a4.659,4.659,0,0,0,3.676,1.733c1.208,0,1.943-.525,1.943-1.418,0-2.468-7.563-1.523-7.563-7.2,0-2.941,2.521-4.727,5.83-4.727a6.031,6.031,0,0,1,5.462,2.836l-2.784,2.1a3.526,3.526,0,0,0-2.889-1.523c-1,0-1.628.473-1.628,1.26,0,2.521,7.563,1.313,7.563,7.038,0,3.1-2.678,5.094-6.145,5.094A6.861,6.861,0,0,1,255.9,120.113Z" transform="translate(-142.826 -100.575)" fill="#5077b3"/>
            <path id="Path_16" data-name="Path 16" d="M294.708,110.507c-3.151,0-4.307,1.943-4.307,5.147v6.985h-4.2V106.62h4.149v2.311a4.682,4.682,0,0,1,4.412-2.731v4.307Z" transform="translate(-157.212 -100.528)" fill="#5077b3"/>
            <path id="Path_17" data-name="Path 17" d="M314.544,112.445a6.286,6.286,0,0,1,3.466.893v-1.05c0-1.418-1.05-2.363-2.889-2.363a9.316,9.316,0,0,0-4.254,1.155l-1.576-2.889a11.637,11.637,0,0,1,6.3-1.891c5.147,0,6.67,2.678,6.67,6.25v10.136h-3.729l-.263-1.05a5,5,0,0,1-3.886,1.418c-3.256,0-5.987-2-5.987-5.357C308.347,114.6,310.815,112.445,314.544,112.445Zm.788,7.353c1.576,0,2.731-.84,2.731-2.206,0-1.418-1.155-2.206-2.784-2.206s-2.731.893-2.731,2.206S313.756,119.8,315.332,119.8Z" transform="translate(-167.752 -100.575)" fill="#5077b3"/>
            <path id="Path_18" data-name="Path 18" d="M343.3,116.243V107h4.2v9.716a2.681,2.681,0,0,0,2.679,2.889,2.773,2.773,0,0,0,2.836-2.994V107h4.2v15.966h-4.1v-1.891a5.044,5.044,0,0,1-4.254,2.258C344.3,123.439,343.3,119.657,343.3,116.243Z" transform="translate(-184.324 -100.908)" fill="#5077b3"/>
            <path id="Path_19" data-name="Path 19" d="M401.741,122.686h-4.2v-9.559c0-1.891-.945-3.046-2.521-3.046-1.523,0-2.573,1.155-2.573,3.046v9.559h-4.2V112.97c0-1.786-.893-2.889-2.468-2.889-1.523,0-2.573,1.155-2.573,3.046v9.559H379V106.668h4.149v1.891A4.574,4.574,0,0,1,387.3,106.3a4.669,4.669,0,0,1,4.359,2.363,5.349,5.349,0,0,1,4.727-2.363c3.624,0,5.462,2.416,5.462,5.83v10.556Z" transform="translate(-201.274 -100.575)" fill="#5077b3"/>
        </g>
        <g id="Group_3" data-name="Group 3" transform="translate(33.126 98.353)">
            <path id="Path_20" data-name="Path 20" d="M42.1,154h4.2v22.111H42.1Z" transform="translate(-42.1 -154)" fill="#5077b3"/>
            <path id="Path_21" data-name="Path 21" d="M63.844,171.045a6.286,6.286,0,0,1,3.466.893v-1.05c0-1.418-1.05-2.363-2.889-2.363a9.316,9.316,0,0,0-4.254,1.155l-1.576-2.889a11.637,11.637,0,0,1,6.3-1.891c5.147,0,6.67,2.678,6.67,6.25v10.136H67.836l-.263-1.05a5,5,0,0,1-3.886,1.418c-3.256,0-5.987-2-5.987-5.357C57.647,173.146,60.115,171.045,63.844,171.045Zm.84,7.353c1.576,0,2.731-.84,2.731-2.206,0-1.418-1.155-2.206-2.784-2.206s-2.731.893-2.731,2.206S63.056,178.4,64.684,178.4Z" transform="translate(-49.506 -159.175)" fill="#5077b3"/>
            <path id="Path_22" data-name="Path 22" d="M106.818,172.09v9.243h-4.2v-9.716a2.681,2.681,0,0,0-2.678-2.889,2.773,2.773,0,0,0-2.836,2.994v9.611H92.9V165.367h4.149v1.891A5.044,5.044,0,0,1,101.3,165C105.872,164.947,106.818,168.676,106.818,172.09Z" transform="translate(-66.22 -159.222)" fill="#5077b3"/>
            <path id="Path_23" data-name="Path 23" d="M143.244,176.111h-3.991v-1.628a6.131,6.131,0,0,1-4.727,2.048c-4.569,0-7.825-3.466-7.825-8.4s2.994-8.4,7.563-8.4a5.851,5.851,0,0,1,4.727,2.1V154h4.2v22.111Zm-8.193-12.657c-2.468,0-4.1,1.943-4.1,4.727,0,2.836,1.733,4.622,4.1,4.622,2.573,0,4.1-2.1,4.1-4.622C139.147,165.134,137.361,163.454,135.051,163.454Z" transform="translate(-82.269 -154)" fill="#5077b3"/>
        </g>
        <path id="Path_24" data-name="Path 24" d="M42.737,46.233a10.74,10.74,0,0,0-8.771,2.206c-6.407-1.838-10.031,1.313-10.766,2l2.731,2.731a6.378,6.378,0,0,1,4.989-1.418c-2.1,3.309-2.784,7.353-1.628,10.241a6.087,6.087,0,0,0,5.2,3.886,4.806,4.806,0,0,0,.84.053,5.684,5.684,0,0,0,5.62-4.832,11.275,11.275,0,0,0-3.2-10.556A6.951,6.951,0,0,1,42,50.014c1.838.315,6.67,1.155,5.357,13.287h3.886C52.3,53.165,49.407,47.388,42.737,46.233ZM37.223,60.256a2.068,2.068,0,0,1-2.258,1.838,2.16,2.16,0,0,1-2.1-1.523c-.788-2,0-5.2,1.891-7.563A7.605,7.605,0,0,1,37.223,60.256Z" transform="translate(0 -4.391)" fill="#5077b3"/>
    </g>
</svg>
