<?xml version="1.0" encoding="UTF-8"?>
<svg width="309px" height="45px" viewBox="0 0 309 45" version="1.1" xmlns="http://www.w3.org/2000/svg" xmlns:xlink="http://www.w3.org/1999/xlink">
    <!-- Generator: Sketch 51.3 (57544) - http://www.bohemiancoding.com/sketch -->
    <title>logo</title>
    <desc>Created with Sketch.</desc>
    <defs></defs>
    <g id="Page-1" stroke="none" stroke-width="1" fill="none" fill-rule="evenodd">
        <g id="startpage" transform="translate(-351.000000, -30.000000)">
            <g id="header" transform="translate(351.000000, 29.000000)">
                <g id="logo" transform="translate(0.000000, 0.361000)">
                    <path d="M0,10.234 L5.244,10.234 L5.244,15.1 L5.344,15.1 C5.981,12.42 9.314,9.546 12.744,9.546 C13.4496828,9.5411904 14.1547114,9.5899975 14.853,9.692 L14.853,15.052 C14.0586317,14.9221359 13.2571955,14.8399887 12.453,14.806 C8.63,14.806 5.589,17.878 5.589,23.428 L5.589,35.416 L0,35.416 L0,10.234" id="Fill-1" fill="#4B4B4B"></path>
                    <path d="M22.121,24.259 C22.121,28.212 24.277,31.713 28.936,31.713 C32.17,31.713 34.136,30.303 35.113,27.525 L40.407,27.525 C39.184,33.025 34.474,36.097 28.936,36.097 C20.993,36.097 16.536,30.597 16.536,22.849 C16.536,15.686 21.236,9.549 28.79,9.549 C36.783,9.549 41.685,16.712 40.753,24.257 L22.121,24.259 Z M35.162,20.609 C34.962,17.109 32.562,13.933 28.788,13.933 C27.0132334,13.9165106 25.3064859,14.6148694 24.052329,15.8707193 C22.7981721,17.1265692 22.1021164,18.8342572 22.121,20.609 L35.162,20.609 Z" id="Fill-4" fill="#4B4B4B"></path>
                    <path d="M70.346,34.1 C70.346,41.652 65.888,45.4 57.895,45.4 C52.795,45.4 47.059,43.45 46.569,37.555 L52.158,37.555 C52.841,40.726 55.393,41.255 58.237,41.255 C62.748,41.255 64.758,38.968 64.758,34.825 L64.758,30.975 L64.658,30.975 C63.1151487,33.7214777 60.2081589,35.4193892 57.058,35.414 C49.017,35.414 45.684,29.37 45.684,22.157 C45.684,15.389 49.948,9.544 57.154,9.544 C60.342,9.544 63.233,10.861 64.654,13.686 L64.754,13.686 L64.754,10.234 L70.343,10.234 L70.343,34.1 L70.346,34.1 Z M64.758,22.264 C64.758,17.932 62.799,13.933 57.944,13.933 C52.992,13.933 51.276,18.515 51.276,22.708 C51.276,26.842 53.286,31.03 57.944,31.03 C62.893,31.03 64.758,26.553 64.758,22.264 Z" id="Fill-5" fill="#4B4B4B"></path>
                    <path d="M76.58,5.9 L82.172,5.9 L82.172,0.639 L76.58,0.639 L76.58,5.9 Z M76.58,35.419 L82.172,35.419 L82.172,10.234 L76.58,10.234 L76.58,35.419 Z" id="Fill-6" fill="#4B4B4B"></path>
                    <path d="M87.516,22.8 C87.516,15.109 92.172,9.551 100.31,9.551 C108.448,9.551 113.11,15.108 113.11,22.8 C113.11,30.544 108.455,36.1 100.31,36.1 C92.165,36.1 87.516,30.544 87.516,22.8 M107.516,22.8 C107.516,18.469 105.316,13.933 100.309,13.933 C95.302,13.933 93.1,18.468 93.1,22.8 C93.1,27.185 95.305,31.714 100.305,31.714 C105.305,31.714 107.512,27.186 107.512,22.8" id="Fill-7" fill="#4B4B4B"></path>
                    <path d="M173.048,35.416 L173.048,31.907 L172.948,31.907 C171.440096,34.4642738 168.709398,36.0518451 165.741,36.097 C159.122,36.097 156.28,32.784 156.28,26.212 L156.28,10.237 L161.866,10.237 L161.866,25.675 C161.866,30.108 163.683,31.717 166.723,31.717 C171.38,31.717 172.949,28.744 172.949,24.849 L172.949,10.237 L178.54,10.237 L178.54,35.416 L173.048,35.416 Z" id="Fill-8" fill="#4B4B4B"></path>
                    <path d="M186.2,5.9 L191.791,5.9 L191.791,0.639 L186.2,0.639 L186.2,5.9 Z M186.2,35.419 L191.791,35.419 L191.791,10.234 L186.2,10.234 L186.2,35.419 Z" id="Fill-9" fill="#4B4B4B"></path>
                    <path d="M203.576,27.33 C203.871,30.543 206.317,31.713 209.312,31.713 C211.421,31.713 215.098,31.276 214.948,28.403 C214.801,25.479 210.734,25.136 206.664,24.213 C202.546,23.338 198.527,21.873 198.527,16.763 C198.527,11.256 204.509,9.551 209.117,9.551 C214.311,9.551 219.017,11.697 219.705,17.296 L213.868,17.296 C213.379,14.664 211.174,13.937 208.722,13.937 C207.106,13.937 204.116,14.324 204.116,16.515 C204.116,19.246 208.233,19.637 212.353,20.557 C216.421,21.49 220.537,22.945 220.537,27.916 C220.537,33.907 214.462,36.097 209.212,36.097 C202.84,36.097 198.084,33.27 197.984,27.33 L203.576,27.33" id="Fill-10" fill="#4B4B4B"></path>
                    <path d="M230.214,27.33 C230.514,30.543 232.956,31.713 235.951,31.713 C238.056,31.713 241.738,31.276 241.589,28.403 C241.441,25.479 237.373,25.136 233.304,24.213 C229.186,23.338 225.164,21.873 225.164,16.763 C225.164,11.256 231.148,9.551 235.754,9.551 C240.954,9.551 245.654,11.697 246.344,17.296 L240.507,17.296 C240.018,14.664 237.807,13.937 235.361,13.937 C233.742,13.937 230.75,14.324 230.75,16.515 C230.75,19.246 234.871,19.637 238.987,20.557 C243.058,21.49 247.177,22.945 247.177,27.916 C247.177,33.907 241.093,36.097 235.848,36.097 C229.476,36.097 224.719,33.27 224.622,27.33 L230.211,27.33" id="Fill-11" fill="#4B4B4B"></path>
                    <path d="M255.98,24.259 C255.98,28.212 258.138,31.713 262.795,31.713 C266.031,31.713 267.995,30.303 268.974,27.525 L274.269,27.525 C273.044,33.025 268.339,36.097 262.796,36.097 C254.855,36.097 250.396,30.597 250.396,22.849 C250.396,15.686 255.096,9.549 262.649,9.549 C270.64,9.549 275.544,16.712 274.612,24.257 L255.98,24.259 Z M269.021,20.609 C268.826,17.109 266.426,13.933 262.648,13.933 C260.873061,13.9162402 259.166054,14.6144797 257.911679,15.8703594 C256.657304,17.1262392 255.961112,18.8340822 255.98,20.609 L269.021,20.609 Z" id="Fill-12" fill="#4B4B4B"></path>
                    <path d="M277.656,32.399 L280.992,32.399 L280.992,35.639 L277.656,35.639 L277.656,32.399 Z M292.488,27.383 C292.375999,26.6149962 292.068003,26.035002 291.564,25.643 C291.059997,25.250998 290.424004,25.055 289.656,25.055 C289.303998,25.055 288.928002,25.1149994 288.528,25.235 C288.127998,25.3550006 287.760002,25.5789984 287.424,25.907 C287.087998,26.2350016 286.808001,26.6909971 286.584,27.275 C286.359999,27.8590029 286.248,28.6229953 286.248,29.567 C286.248,30.0790026 286.307999,30.5909974 286.428,31.103 C286.548001,31.6150026 286.739999,32.070998 287.004,32.471 C287.268001,32.871002 287.607998,33.1949988 288.024,33.443 C288.440002,33.6910012 288.943997,33.815 289.536,33.815 C290.336004,33.815 290.995997,33.5670025 291.516,33.071 C292.036003,32.5749975 292.359999,31.8790045 292.488,30.983 L295.224,30.983 C294.967999,32.5990081 294.356005,33.8349957 293.388,34.691 C292.419995,35.5470043 291.136008,35.975 289.536,35.975 C288.559995,35.975 287.700004,35.8110016 286.956,35.483 C286.211996,35.1549984 285.584003,34.7070028 285.072,34.139 C284.559997,33.5709972 284.172001,32.8950039 283.908,32.111 C283.643999,31.3269961 283.512,30.4790046 283.512,29.567 C283.512,28.6389954 283.639999,27.7670041 283.896,26.951 C284.152001,26.1349959 284.535997,25.427003 285.048,24.827 C285.560003,24.226997 286.195996,23.7550017 286.956,23.411 C287.716004,23.0669983 288.607995,22.895 289.632,22.895 C290.352004,22.895 291.035997,22.9869991 291.684,23.171 C292.332003,23.3550009 292.907997,23.6309982 293.412,23.999 C293.916003,24.3670018 294.327998,24.8309972 294.648,25.391 C294.968002,25.9510028 295.16,26.6149962 295.224,27.383 L292.488,27.383 Z M297.456,18.503 L300.192,18.503 L300.192,24.863 L300.24,24.863 C300.576002,24.3029972 301.075997,23.8350019 301.74,23.459 C302.404003,23.0829981 303.143996,22.895 303.96,22.895 C305.320007,22.895 306.391996,23.2469965 307.176,23.951 C307.960004,24.6550035 308.352,25.710993 308.352,27.119 L308.352,35.639 L305.616,35.639 L305.616,27.839 C305.584,26.8629951 305.376002,26.1550022 304.992,25.715 C304.607998,25.2749978 304.008004,25.055 303.192,25.055 C302.727998,25.055 302.312002,25.1389992 301.944,25.307 C301.575998,25.4750008 301.264001,25.7069985 301.008,26.003 C300.751999,26.2990015 300.552001,26.646998 300.408,27.047 C300.263999,27.447002 300.192,27.8709978 300.192,28.319 L300.192,35.639 L297.456,35.639 L297.456,18.503 Z" id=".ch" fill="#4B4B4B"></path>
                    <path d="M117.768,22.763 C117.747,15 121.3,9.063 128.739,8.95 L128.966,8.95 L128.966,16.15 L128.766,16.167 C124.958,16.521 123.616,19.31 123.593,22.888 C123.562135,24.3411448 123.786539,25.7884314 124.256,27.164 C124.613834,28.5216505 125.830203,29.4762022 127.234,29.501 C127.295,29.501 127.357,29.501 127.423,29.501 C130.741,29.401 131.234,24.621 132.355,19.643 C133.413,14.648 135.282,9.6 141.71,9.6 C148.673,9.626 150.766,17.039 150.778,22.643 C150.791,28.985 148.093,34.843 141.078,35.679 L140.829,35.713 L140.829,28.213 L141.009,28.179 C144.096,27.607 144.933,25.104 144.948,22.162 C144.966101,20.9910058 144.77685,19.8260464 144.389,18.721 C144.105296,17.6251127 143.135278,16.8458444 142.004,16.805 C138.952,16.719 138.38,21.567 137.263,26.605 C136.142,31.522 134.284,36.691 128.024,36.691 C120.48,36.677 117.774,29.141 117.763,22.753" id="Fill-13" fill="#A2B83C"></path>
                </g>
            </g>
        </g>
    </g>
</svg>